<svg width="27" height="26" viewBox="0 0 27 26" fill="none" xmlns="http://www.w3.org/2000/svg">
<path d="M15.75 10.075V13.2167H18.675C18.9 13.2167 19.0125 13.4333 19.0125 13.65L18.5625 15.7083C18.5625 15.8167 18.3375 15.925 18.225 15.925H15.75V23.8333H12.375V16.0333H10.4625C10.2375 16.0333 10.125 15.925 10.125 15.7083V13.65C10.125 13.4333 10.2375 13.325 10.4625 13.325H12.375V9.75C12.375 7.90833 13.8375 6.5 15.75 6.5H18.7875C19.0125 6.5 19.125 6.60833 19.125 6.825V9.425C19.125 9.64167 19.0125 9.75 18.7875 9.75H16.0875C15.8625 9.75 15.75 9.85833 15.75 10.075V10.075Z" stroke="black" stroke-width="1.5" stroke-miterlimit="10" stroke-linecap="round"/>
<path d="M16.875 23.8333H10.125C4.5 23.8333 2.25 21.6667 2.25 16.25V9.74999C2.25 4.33332 4.5 2.16666 10.125 2.16666H16.875C22.5 2.16666 24.75 4.33332 24.75 9.74999V16.25C24.75 21.6667 22.5 23.8333 16.875 23.8333Z" stroke="black" stroke-width="1.5" stroke-linecap="round" stroke-linejoin="round"/>
</svg>
