<svg width="42" height="42" viewBox="0 0 42 42" fill="none" xmlns="http://www.w3.org/2000/svg">
<path d="M35.1554 17.92V16.6278H32.7026L31.6246 16.6096C30.7034 16.6096 30.0734 17.2158 29.8256 17.9214V16.6292H27.0788V25.0124H29.8256V23.2148V20.4316C29.8256 19.5958 30.5032 18.9182 31.339 18.9182H32.41V25.011H35.1568V23.2134V20.4302C35.1568 19.5944 35.8344 18.9168 36.6702 18.9168H38.0338V16.6264L36.9558 16.6082C36.0332 16.6082 35.4032 17.2158 35.1554 17.92ZM15.6128 16.8028L14.1386 21.6482L12.6658 16.8028H9.91898L12.9024 25.186H13.0634H15.2152H15.3762L18.3582 16.8028H15.6128ZM4.39038 16.8028V16.2442C4.39038 15.7542 4.78658 15.358 5.27658 15.358H7.00978V13.0592H4.62978C2.98198 13.0592 1.64498 14.3948 1.64498 16.044V16.8042H0.0391846V19.026H1.64498V25.186H4.39178V19.026H7.01118V25.186H9.75798V19.026V16.8042H7.01118H4.39038V16.8028ZM22.1662 16.6894H21.8316C19.5818 16.6894 17.7576 18.5136 17.7576 20.7634V21.224C17.7576 23.4738 19.5818 25.298 21.8316 25.298H22.575C24.115 25.298 25.4338 24.3474 25.9756 23.0006L23.5536 22.2936C23.5536 22.2936 23.2638 23.1238 22.253 23.1238C21.112 23.1238 20.5086 22.4994 20.4288 21.791V21.7868C20.4232 21.735 20.4204 21.6832 20.4204 21.6314H23.5186H26.243V20.7648C26.2402 18.5136 24.416 16.6894 22.1662 16.6894ZM20.4218 20.0144C20.4554 19.2612 21.0756 18.6592 21.8372 18.6592H22.099C22.8606 18.6592 23.4808 19.2598 23.5144 20.0144H20.4218ZM40.2556 21.9646C39.312 21.9646 38.5476 22.729 38.5476 23.6726C38.5476 24.6162 39.312 25.3806 40.2556 25.3806C41.1992 25.3806 41.9636 24.6162 41.9636 23.6726C41.9636 22.729 41.1992 21.9646 40.2556 21.9646Z" fill="black"/>
</svg>
