<svg width="26" height="26" viewBox="0 0 26 26" fill="none" xmlns="http://www.w3.org/2000/svg">
<path d="M9.75002 23.8333H16.25C21.6667 23.8333 23.8334 21.6667 23.8334 16.25V9.74999C23.8334 4.33332 21.6667 2.16666 16.25 2.16666H9.75002C4.33335 2.16666 2.16669 4.33332 2.16669 9.74999V16.25C2.16669 21.6667 4.33335 23.8333 9.75002 23.8333Z" stroke="black" stroke-width="1.5" stroke-linecap="round" stroke-linejoin="round"/>
<path d="M13 16.7917C13.4979 16.7917 13.991 16.6936 14.451 16.5031C14.911 16.3125 15.329 16.0332 15.6811 15.6811C16.0332 15.329 16.3125 14.911 16.503 14.451C16.6936 13.991 16.7916 13.4979 16.7916 13C16.7916 12.5021 16.6936 12.009 16.503 11.549C16.3125 11.089 16.0332 10.671 15.6811 10.3189C15.329 9.96681 14.911 9.68752 14.451 9.49697C13.991 9.30642 13.4979 9.20834 13 9.20834C11.9944 9.20834 11.0299 9.60782 10.3189 10.3189C9.60779 11.03 9.20831 11.9944 9.20831 13C9.20831 14.0056 9.60779 14.97 10.3189 15.6811C11.0299 16.3922 11.9944 16.7917 13 16.7917V16.7917Z" stroke="black" stroke-width="1.5" stroke-linecap="round" stroke-linejoin="round"/>
<path d="M19.1057 7.58334H19.1187" stroke="black" stroke-width="2" stroke-linecap="round" stroke-linejoin="round"/>
</svg>
