<svg width="18" height="18" viewBox="0 0 18 18" fill="none" xmlns="http://www.w3.org/2000/svg">
<path d="M13.6946 7.49867H9.92265V3.72668C9.92265 3.40524 9.79496 3.09696 9.56767 2.86967C9.34037 2.64237 9.0321 2.51468 8.71066 2.51468C8.38921 2.51468 8.08094 2.64237 7.85364 2.86967C7.62635 3.09696 7.49866 3.40524 7.49866 3.72668V7.49867H3.72666C3.40522 7.49867 3.09694 7.62636 2.86965 7.85366C2.64236 8.08095 2.51466 8.38923 2.51466 8.71067C2.51466 9.03211 2.64236 9.34039 2.86965 9.56768C3.09694 9.79498 3.40522 9.92267 3.72666 9.92267H7.49866V13.6947C7.49866 14.0161 7.62635 14.3244 7.85364 14.5517C8.08094 14.779 8.38921 14.9067 8.71066 14.9067C9.0321 14.9067 9.34037 14.779 9.56767 14.5517C9.79496 14.3244 9.92265 14.0161 9.92265 13.6947V9.92267H13.6946C14.0161 9.92267 14.3244 9.79498 14.5517 9.56768C14.779 9.34039 14.9066 9.03211 14.9066 8.71067C14.9066 8.38923 14.779 8.08095 14.5517 7.85366C14.3244 7.62636 14.0161 7.49867 13.6946 7.49867Z" fill="#C25A38" stroke="#C25A38"/>
</svg>
