<svg width="28" height="26" viewBox="0 0 28 26" fill="none" xmlns="http://www.w3.org/2000/svg">
<path d="M8.04998 22.3167C9.79998 23.2917 11.9 23.8333 14 23.8333C20.4166 23.8333 25.6666 18.9583 25.6666 13C25.6666 7.04166 20.4166 2.16666 14 2.16666C7.58331 2.16666 2.33331 7.04166 2.33331 13C2.33331 14.95 2.91665 16.7917 3.84998 18.4167L2.84665 21.9982C2.79488 22.183 2.79669 22.3774 2.85189 22.5614C2.90709 22.7454 3.01372 22.9126 3.16096 23.0461C3.3082 23.1795 3.49082 23.2744 3.6903 23.3211C3.88978 23.3679 4.09902 23.3648 4.29681 23.3122L8.04998 22.3167Z" stroke="black" stroke-width="1.5" stroke-miterlimit="10" stroke-linecap="round" stroke-linejoin="round"/>
<path d="M19.25 16.0853C19.25 16.2608 19.208 16.4417 19.1182 16.6172C19.0265 16.7986 18.9062 16.9662 18.7612 17.1145C18.5033 17.3778 18.2198 17.5673 17.8978 17.6898C17.5828 17.8122 17.241 17.875 16.8735 17.875C16.3368 17.875 15.764 17.758 15.1585 17.5197C14.5184 17.262 13.9117 16.9378 13.3502 16.5533C12.7394 16.1391 12.163 15.6828 11.6258 15.1883C11.0944 14.6923 10.6041 14.1596 10.1593 13.5947C9.75056 13.0778 9.40467 12.5205 9.128 11.9329C8.876 11.375 8.75 10.8442 8.75 10.3383C8.75 10.0068 8.813 9.69042 8.939 9.39792C9.065 9.1 9.26567 8.827 9.5445 8.58325C9.8805 8.27558 10.248 8.125 10.6377 8.125C10.7847 8.125 10.9317 8.15425 11.0635 8.21275C11.2 8.27125 11.3202 8.359 11.4158 8.48575L12.6362 10.0804C12.7295 10.2018 12.7995 10.3144 12.8462 10.4217C12.8928 10.5235 12.9197 10.6264 12.9197 10.7185C12.9182 10.8414 12.8798 10.9614 12.8088 11.0652C12.7278 11.192 12.629 11.3082 12.5148 11.4107L12.1147 11.7964C12.0868 11.8217 12.065 11.8521 12.0505 11.8857C12.0361 11.9193 12.0293 11.9553 12.0307 11.9914C12.0307 12.0293 12.0365 12.064 12.047 12.103C12.0622 12.142 12.0785 12.1712 12.089 12.2005C12.1823 12.3619 12.3457 12.571 12.5778 12.8245C12.8147 13.078 13.0667 13.3369 13.3397 13.5947C13.6243 13.8537 13.8973 14.092 14.1762 14.3119C14.4492 14.5253 14.6755 14.6716 14.854 14.7593L14.9497 14.7994C14.9916 14.8133 15.0359 14.8199 15.0803 14.8189C15.1206 14.8197 15.1606 14.8127 15.1977 14.7984C15.2349 14.784 15.2684 14.7626 15.2962 14.7355L15.6952 14.3693C15.827 14.248 15.953 14.1559 16.0743 14.0963C16.1859 14.0303 16.3154 13.995 16.4477 13.9945C16.5581 13.996 16.6671 14.0177 16.7685 14.0584C16.884 14.1018 17.0053 14.1646 17.136 14.248L18.8767 15.3942C19.0028 15.4704 19.1031 15.5782 19.166 15.7051C19.2205 15.8255 19.2491 15.9547 19.25 16.0853V16.0853Z" stroke="black" stroke-width="1.5" stroke-miterlimit="10"/>
</svg>
